<svg width="86" height="38" viewBox="0 0 86 38" fill="none" xmlns="http://www.w3.org/2000/svg">
<path d="M16.6782 19.2139L11.8363 5.8818L6.99445 19.2139H10.8962V20.9576H12.6747V19.2139H16.6782ZM17.299 20.9576H6.36083L-0.0419922 33.1819L11.8363 0.65625L23.6434 33.1819L17.299 20.9576Z" fill="#ffffff"/>
<path d="M31.0181 33.1716C29.3243 33.1716 27.9757 32.6693 26.9723 31.6646C25.9689 30.6599 25.4534 29.3926 25.4258 27.8625V19.4012H26.6685V27.7519C26.6685 28.9041 27.0874 29.8857 27.9251 30.6968C28.7536 31.5171 29.78 31.9273 31.0043 31.9273C32.1458 31.9273 33.133 31.5194 33.9661 30.7037C34.7992 29.888 35.2158 28.9041 35.2158 27.7519V19.4012H36.4585V27.8625C36.4309 29.3926 35.9154 30.6599 34.912 31.6646C33.9086 32.6693 32.6106 33.1716 31.0181 33.1716ZM39.9189 19.4012H41.1617V21.876C41.4194 21.5073 41.7186 21.1525 42.0592 20.8114C43.1547 19.7146 44.2777 19.1385 45.4284 19.0832V20.4381C44.6459 20.475 43.8359 20.9128 42.9982 21.7516C41.8199 22.9222 41.2077 24.3278 41.1617 25.9684V32.9781H39.9189V19.4012ZM49.3031 19.4012V32.9781H48.0603V19.4012H49.3031ZM48.6817 14.5898C49.0223 14.5898 49.3146 14.7097 49.5585 14.9493C49.8025 15.189 49.9244 15.4793 49.9244 15.8203C49.9244 16.1706 49.8025 16.4655 49.5585 16.7052C49.3146 16.9448 49.0223 17.0646 48.6817 17.0646C48.3411 17.0646 48.0488 16.9448 47.8049 16.7052C47.5609 16.4655 47.439 16.1706 47.439 15.8203C47.439 15.4793 47.5609 15.189 47.8049 14.9493C48.0488 14.7097 48.3411 14.5898 48.6817 14.5898ZM66.4198 24.4752C66.1804 23.2862 65.6097 22.2401 64.7076 21.3368C63.4832 20.1109 62.0058 19.498 60.2751 19.498C58.5445 19.498 57.0671 20.1109 55.8427 21.3368C54.6184 22.5627 54.0062 24.042 54.0062 25.7749C54.0062 27.5077 54.6184 28.987 55.8427 30.2129C57.0671 31.4388 58.5445 32.0517 60.2751 32.0517C62.0058 32.0517 63.4832 31.4388 64.7076 30.2129C65.6005 29.3188 66.1712 28.2819 66.4198 27.1021V24.4752ZM66.3922 30.282C66.162 30.577 65.9135 30.8627 65.6465 31.1392C64.1644 32.6232 62.374 33.3652 60.2751 33.3652C58.1855 33.3652 56.3997 32.6232 54.9176 31.1392C53.4355 29.6553 52.6945 27.8672 52.6945 25.7749C52.6945 23.6733 53.4355 21.8829 54.9176 20.4036C56.3997 18.9242 58.1855 18.1845 60.2751 18.1845C62.374 18.1845 64.1644 18.9219 65.6465 20.3966C65.9319 20.6916 66.1943 21.0004 66.4336 21.323V19.4012H67.6763V29.9502C67.6763 31.9872 66.9537 33.7292 65.5084 35.1763C64.0264 36.6603 62.2405 37.4023 60.1509 37.4023C58.052 37.4023 56.2616 36.6603 54.7795 35.1763C54.4757 34.8722 54.2042 34.5542 53.9648 34.2224L55.2766 33.7523C55.4147 33.9182 55.562 34.0795 55.7184 34.2362C56.9428 35.4621 58.4202 36.075 60.1509 36.075C61.8723 36.075 63.3452 35.4621 64.5695 34.2362C65.6834 33.1209 66.2909 31.8029 66.3922 30.282ZM85.6215 32.9781H84.3788V30.2129C84.1395 30.5355 83.8771 30.8443 83.5917 31.1392C82.1096 32.6232 80.3192 33.3652 78.2203 33.3652C76.1307 33.3652 74.3449 32.6232 72.8628 31.1392C71.3807 29.6553 70.6397 27.8672 70.6397 25.7749C70.6397 23.6733 71.3807 21.8806 72.8628 20.3966C74.3449 18.9127 76.1307 18.1707 78.2203 18.1707C80.3192 18.1707 82.1096 18.9127 83.5917 20.3966C83.8771 20.6916 84.1395 21.0004 84.3788 21.323V19.4012H85.6215V32.9781ZM84.3788 27.0053V24.5444C84.1487 23.3277 83.5733 22.2585 82.6528 21.3368C81.4284 20.1109 79.951 19.498 78.2203 19.498C76.4897 19.498 75.0123 20.1109 73.7879 21.3368C72.5636 22.5627 71.9514 24.042 71.9514 25.7749C71.9514 27.5077 72.5636 28.9847 73.7879 30.206C75.0123 31.4273 76.4897 32.0379 78.2203 32.0379C79.951 32.0379 81.4284 31.425 82.6528 30.1991C83.5733 29.2774 84.1487 28.2128 84.3788 27.0053Z" fill="#ffffff"/>
</svg>
